<?xml version="1.0" encoding="iso-8859-1"?>
<!-- Uploaded to: SVG Repo, www.svgrepo.com, Generator: SVG Repo Mixer Tools -->
<svg height="800px" width="800px" version="1.1" id="Layer_1" xmlns="http://www.w3.org/2000/svg" xmlns:xlink="http://www.w3.org/1999/xlink" 
	 viewBox="0 0 512.132 512.132" xml:space="preserve">
<g transform="translate(1 1)">
	<g>
		<path style="fill:#FDCC00;" d="M50.2,109.999v51.2h-8.533c-18.773,0-34.133-15.36-34.133-34.133v-17.067H50.2z"/>
		<polygon style="fill:#FDCC00;" points="50.2,195.333 92.867,195.333 92.867,75.866 50.2,75.866 		"/>
		<polygon style="fill:#FDCC00;" points="92.867,178.266 127,178.266 127,92.933 92.867,92.933 		"/>
	</g>
	<g>
		<polygon style="fill:#FFE100;" points="127,502.533 212.333,502.533 212.333,92.933 184.173,7.599 155.16,7.599 127,92.933 		"/>
		<polygon style="fill:#FFE100;" points="459.8,92.933 212.333,92.933 212.333,178.266 502.467,178.266 		"/>
	</g>
	<polygon style="fill:#FFA800;" points="459.8,92.933 434.2,92.933 476.867,178.266 502.467,178.266 	"/>
	<path style="fill:#63D3FD;" d="M442.733,255.066H408.6v-10.24c0-15.36,5.973-29.867,17.067-40.96
		c11.093,11.093,17.067,25.6,17.067,40.96V255.066z"/>
	<g>
		<path style="fill:#FFE100;" d="M434.2,220.933c-5.12,0-8.533-3.413-8.533-8.533v-25.6c0-5.12,3.413-8.533,8.533-8.533
			c5.12,0,8.533,3.413,8.533,8.533v25.6C442.733,217.519,439.32,220.933,434.2,220.933z"/>
		<path style="fill:#FFE100;" d="M434.2,297.733c-5.12,0-8.533-3.413-8.533-8.533v-25.6c0-5.12,3.413-8.533,8.533-8.533
			c5.12,0,8.533,3.413,8.533,8.533v25.6C442.733,294.319,439.32,297.733,434.2,297.733z"/>
		<path style="fill:#FFE100;" d="M434.2,348.933c-5.12,0-8.533-3.413-8.533-8.533c0-5.12,3.413-8.533,8.533-8.533
			c9.387,0,17.067-7.68,17.067-17.067c0-9.387-7.68-17.067-17.067-17.067c-5.12,0-8.533-3.413-8.533-8.533
			c0-5.12,3.413-8.533,8.533-8.533c18.773,0,34.133,15.36,34.133,34.133C468.333,333.573,452.973,348.933,434.2,348.933z"/>
		<path style="fill:#FFE100;" d="M485.4,417.199L485.4,417.199H383c-3.413,0-5.973-1.707-7.68-5.12
			c-1.707-2.56-0.853-5.973,0.853-8.533l51.2-68.267c3.413-4.267,10.24-4.267,13.653,0l50.347,67.413
			c1.707,1.707,2.56,3.413,2.56,5.973C493.933,413.786,490.52,417.199,485.4,417.199z M400.067,400.133h68.267L434.2,354.906
			L400.067,400.133z"/>
	</g>
	<polygon style="fill:#63D3FD;" points="348.867,468.399 502.467,468.399 502.467,400.133 348.867,400.133 	"/>
	<polygon style="fill:#3DB9F9;" points="476.867,468.399 502.467,468.399 502.467,400.133 476.867,400.133 	"/>
	<path d="M212.333,511.066H127c-5.12,0-8.533-3.413-8.533-8.533v-409.6c0-0.853,0-1.707,0.853-2.56l28.16-85.333
		c0.853-3.413,4.267-5.973,7.68-5.973h28.16c3.413,0,6.827,2.56,7.68,5.973l28.16,85.333c1.707,0.853,1.707,1.707,1.707,2.56v409.6
		C220.867,507.653,217.453,511.066,212.333,511.066z M135.533,493.999H203.8V94.639l-25.6-78.507h-16.213l-26.453,78.507V493.999z"
		/>
	<path d="M314.733,511.066H67.267c-5.12,0-8.533-3.413-8.533-8.533c0-5.12,3.413-8.533,8.533-8.533h247.467
		c5.12,0,8.533,3.413,8.533,8.533C323.267,507.653,319.853,511.066,314.733,511.066z"/>
	<path d="M127,186.799H92.867c-5.12,0-8.533-3.413-8.533-8.533V92.933c0-5.12,3.413-8.533,8.533-8.533H127
		c5.12,0,8.533,3.413,8.533,8.533v85.333C135.533,183.386,132.12,186.799,127,186.799z M101.4,169.733h17.067v-68.267H101.4V169.733
		z"/>
	<path d="M50.2,169.733h-8.533C17.773,169.733-1,150.959-1,127.066v-17.067c0-5.12,3.413-8.533,8.533-8.533H50.2
		c5.12,0,8.533,3.413,8.533,8.533v51.2C58.733,166.319,55.32,169.733,50.2,169.733z M16.067,118.533v8.533
		c0,14.507,11.093,25.6,25.6,25.6v-34.133H16.067z"/>
	<path d="M127,511.066c-2.56,0-4.267-0.853-5.973-2.56c-3.413-3.413-2.56-8.533,0.853-11.947l77.653-69.973l-77.653-62.293
		c-1.707-1.707-3.413-4.267-3.413-6.827s0.853-5.12,3.413-6.827l76.8-61.44l-76.8-61.44c-1.707-1.707-3.413-4.267-3.413-6.827
		c0-2.56,0.853-5.12,3.413-6.827l85.333-68.267c3.413-2.56,9.387-2.56,11.947,1.707c2.56,3.413,2.56,9.387-1.707,11.947l-76.8,61.44
		l76.8,61.44c1.707,1.707,3.413,4.267,3.413,6.827c0,2.56-0.853,5.12-3.413,6.827l-76.8,61.44l76.8,61.44
		c1.707,1.707,3.413,4.267,3.413,6.827s-0.853,5.12-2.56,6.827l-85.333,76.8C131.267,510.213,129.56,511.066,127,511.066z"/>
	<path d="M212.333,511.066c-1.707,0-4.267-0.853-5.973-2.56l-85.333-76.8c-1.707-1.707-2.56-3.413-2.56-5.973
		s0.853-5.12,3.413-6.827l76.8-61.44l-76.8-61.44c-1.707-1.707-3.413-4.267-3.413-6.827c0-2.56,0.853-5.12,3.413-6.827l76.8-61.44
		l-76.8-61.44c-3.413-2.56-4.267-8.533-1.707-11.947c2.56-3.413,8.533-4.267,11.947-1.707l85.333,68.267
		c1.707,1.707,3.413,4.267,3.413,6.827c0,2.56-0.853,5.12-3.413,6.827l-76.8,61.44l76.8,61.44c1.707,1.707,3.413,4.267,3.413,6.827
		s-0.853,5.12-3.413,6.827l-76.8,61.44l77.653,69.973c3.413,3.413,3.413,8.533,0.853,11.947
		C217.453,510.213,214.893,511.066,212.333,511.066z"/>
	<path d="M127,161.199c-2.56,0-5.12-0.853-6.827-3.413c-2.56-4.267-1.707-9.387,1.707-11.947l85.333-59.733
		c4.267-2.56,9.387-1.707,11.947,1.707s1.707,9.387-1.707,11.947l-85.333,59.733C130.413,160.346,128.707,161.199,127,161.199z"/>
	<path d="M212.333,161.199c-1.707,0-3.413-0.853-5.12-1.707L121.88,99.759c-4.267-2.56-5.12-7.68-1.707-11.947
		c2.56-4.267,7.68-5.12,11.947-1.707l85.333,59.733c4.267,2.56,5.12,7.68,1.707,11.947
		C217.453,160.346,214.893,161.199,212.333,161.199z"/>
	<path d="M502.467,186.799H212.333c-5.12,0-8.533-3.413-8.533-8.533V92.933c0-5.12,3.413-8.533,8.533-8.533H459.8
		c3.413,0,5.973,1.707,7.68,5.12l42.667,85.333c1.707,2.56,0.853,5.973,0,8.533C508.44,185.093,505.027,186.799,502.467,186.799z
		 M220.867,169.733h267.947l-34.133-68.267H220.867V169.733z"/>
	<path d="M92.867,203.866H50.2c-5.12,0-8.533-3.413-8.533-8.533V75.866c0-5.12,3.413-8.533,8.533-8.533h42.667
		c5.12,0,8.533,3.413,8.533,8.533v119.467C101.4,200.453,97.987,203.866,92.867,203.866z M58.733,186.799h25.6v-102.4h-25.6V186.799
		z"/>
	<path d="M425.667,186.799c-2.56,0-5.12-0.853-6.827-3.413l-61.44-76.8l-61.44,76.8c-3.413,4.267-10.24,4.267-13.653,0
		L214.04,98.053c-2.56-3.413-2.56-9.387,1.707-11.947c3.413-2.56,9.387-2.56,11.947,1.707l61.44,76.8l61.44-76.8
		c3.413-4.267,10.24-4.267,13.653,0l68.267,85.333c2.56,3.413,2.56,9.387-1.707,11.947
		C429.933,185.946,427.373,186.799,425.667,186.799z"/>
	<path d="M220.867,186.799c-1.707,0-3.413-0.853-5.12-1.707c-3.413-2.56-4.267-8.533-1.707-11.947l68.267-85.333
		c3.413-4.267,10.24-4.267,13.653,0l61.44,76.8l61.44-76.8c2.56-3.413,8.533-4.267,11.947-1.707
		c3.413,2.56,4.267,8.533,1.707,11.947l-68.267,85.333c-3.413,4.267-10.24,4.267-13.653,0l-61.44-76.8l-61.44,76.8
		C225.987,185.946,223.427,186.799,220.867,186.799z"/>
	<path d="M425.667,186.799c-1.707,0-4.267-0.853-5.12-1.707c-3.413-3.413-4.267-8.533-0.853-11.947l47.787-57.173
		c3.413-3.413,8.533-4.267,11.947-0.853c3.413,3.413,4.267,8.533,0.853,11.947l-47.787,57.173
		C430.787,185.946,428.227,186.799,425.667,186.799z"/>
	<path d="M425.667,212.399c-5.12,0-8.533-3.413-8.533-8.533v-25.6c0-5.12,3.413-8.533,8.533-8.533s8.533,3.413,8.533,8.533v25.6
		C434.2,208.986,430.787,212.399,425.667,212.399z"/>
	<path d="M442.733,263.599H408.6c-5.12,0-8.533-3.413-8.533-8.533v-10.24c0-17.92,6.827-34.987,19.627-46.933
		c3.413-3.413,8.533-3.413,11.947,0c12.8,12.8,19.627,29.013,19.627,46.933v10.24C451.267,260.186,447.853,263.599,442.733,263.599z
		 M417.133,246.533H434.2v-1.707c0-10.24-2.56-19.627-8.533-28.16c-5.973,8.533-8.533,17.92-8.533,28.16V246.533z"/>
	<path d="M425.667,289.199c-5.12,0-8.533-3.413-8.533-8.533v-25.6c0-5.12,3.413-8.533,8.533-8.533s8.533,3.413,8.533,8.533v25.6
		C434.2,285.786,430.787,289.199,425.667,289.199z"/>
	<path d="M425.667,340.399c-5.12,0-8.533-3.413-8.533-8.533s3.413-8.533,8.533-8.533c9.387,0,17.067-7.68,17.067-17.067
		s-7.68-17.067-17.067-17.067c-5.12,0-8.533-3.413-8.533-8.533c0-5.12,3.413-8.533,8.533-8.533c18.773,0,34.133,15.36,34.133,34.133
		S444.44,340.399,425.667,340.399z"/>
	<path d="M502.467,476.933h-153.6c-5.12,0-8.533-3.413-8.533-8.533v-68.267c0-5.12,3.413-8.533,8.533-8.533h153.6
		c5.12,0,8.533,3.413,8.533,8.533v68.267C511,473.519,507.587,476.933,502.467,476.933z M357.4,459.866h136.533v-51.2H357.4V459.866
		z"/>
	<path d="M476.867,408.666L476.867,408.666h-102.4c-3.413,0-5.973-1.707-7.68-5.12c-1.707-2.56-0.853-5.973,0.853-8.533l51.2-68.267
		c3.413-4.267,10.24-4.267,13.653,0l50.347,67.413c1.707,1.707,2.56,3.413,2.56,5.973
		C485.4,405.253,481.987,408.666,476.867,408.666z M391.533,391.599H459.8l-34.133-45.227L391.533,391.599z"/>
</g>
</svg>