<?xml version="1.0" encoding="utf-8"?>
<!-- Generator: Adobe Illustrator 27.2.0, SVG Export Plug-In . SVG Version: 6.00 Build 0)  -->
<svg version="1.1" id="Ñëîé_4" xmlns="http://www.w3.org/2000/svg" xmlns:xlink="http://www.w3.org/1999/xlink" x="0px" y="0px"
	 viewBox="0 0 311.81 311.81" style="enable-background:new 0 0 311.81 311.81;" xml:space="preserve">
<style type="text/css">
	.st0{fill:#847A70;}
</style>
<g>
	<g>
		<g>
			<path class="st0" d="M224.31,285.47c-0.52,0-1.05-0.13-1.53-0.39c-1.55-0.85-2.11-2.79-1.26-4.33l30.53-55.61V91.39
				c0-1.76,1.43-3.19,3.19-3.19s3.19,1.43,3.19,3.19v134.56c0,0.54-0.14,1.07-0.39,1.54l-30.92,56.33
				C226.53,284.87,225.44,285.47,224.31,285.47z"/>
		</g>
		<g>
			<path class="st0" d="M224.31,285.47c-1.13,0-2.22-0.6-2.8-1.66l-30.93-56.33c-0.26-0.47-0.39-1-0.39-1.54v-25.05
				c0-1.76,1.43-3.19,3.19-3.19c1.76,0,3.19,1.43,3.19,3.19v24.23l30.53,55.61c0.85,1.55,0.28,3.48-1.26,4.33
				C225.36,285.34,224.83,285.47,224.31,285.47z"/>
		</g>
		<g>
			<path class="st0" d="M235.59,234.78c-0.29,0-0.59-0.04-0.88-0.12c-1.36-0.38-2.28-1.63-2.31-3.04c-0.42-0.63-3.28-2.02-8.37-2.02
				c-5.09,0-7.94,1.39-8.37,2.02c-0.04,1.73-1.45,3.12-3.19,3.12c-1.76,0-3.19-1.43-3.19-3.19c0-5.06,5.79-8.33,14.75-8.33
				c5.46,0,9.74,1.21,12.25,3.3c3.25-2.24,9.15-4.6,19.22-3.75c1.76,0.15,3.06,1.69,2.91,3.45c-0.15,1.76-1.68,3.08-3.45,2.91
				c-12.92-1.09-16.66,4.09-16.69,4.14C237.69,234.23,236.67,234.78,235.59,234.78z"/>
		</g>
		<g>
			<path class="st0" d="M236.1,264c-0.31,0-0.62-0.04-0.92-0.14l-28.25-8.54c-1.69-0.51-2.64-2.29-2.13-3.98
				c0.51-1.69,2.29-2.64,3.98-2.13l28.25,8.54c1.69,0.51,2.64,2.29,2.13,3.98C238.73,263.12,237.47,264,236.1,264z"/>
		</g>
		<g>
			<path class="st0" d="M212.47,234.74c-1.76,0-3.19-1.43-3.19-3.19V111c0-1.76,1.43-3.19,3.19-3.19c1.76,0,3.19,1.43,3.19,3.19
				v120.55C215.66,233.31,214.23,234.74,212.47,234.74z"/>
		</g>
		<g>
			<g>
				<path class="st0" d="M243.4,142.49h-11.53c-1.76,0-3.19-1.43-3.19-3.19c0-1.76,1.43-3.19,3.19-3.19h11.53
					c1.76,0,3.19,1.43,3.19,3.19C246.59,141.06,245.16,142.49,243.4,142.49z"/>
			</g>
			<g>
				<path class="st0" d="M243.4,164h-11.53c-1.76,0-3.19-1.43-3.19-3.19c0-1.76,1.43-3.19,3.19-3.19h11.53
					c1.76,0,3.19,1.43,3.19,3.19C246.59,162.57,245.16,164,243.4,164z"/>
			</g>
			<g>
				<path class="st0" d="M243.4,185.51h-11.53c-1.76,0-3.19-1.43-3.19-3.19c0-1.76,1.43-3.19,3.19-3.19h11.53
					c1.76,0,3.19,1.43,3.19,3.19C246.59,184.08,245.16,185.51,243.4,185.51z"/>
			</g>
		</g>
	</g>
	<g>
		<path class="st0" d="M73.25,117.93c-1.04,0-2.06-0.51-2.68-1.45c-0.96-1.48-0.55-3.45,0.93-4.42l72.48-47.31
			c1.06-0.69,2.43-0.69,3.49,0l66.75,43.57c1.48,0.96,1.89,2.94,0.93,4.42c-0.96,1.48-2.94,1.89-4.42,0.93l-65-42.43l-70.74,46.17
			C74.45,117.77,73.85,117.93,73.25,117.93z"/>
	</g>
	<g>
		<path class="st0" d="M73.25,220.28c-1.04,0-2.06-0.51-2.68-1.45c-0.96-1.48-0.55-3.45,0.93-4.42l72.48-47.31
			c1.06-0.69,2.43-0.69,3.49,0l47.66,31.11c1.48,0.96,1.89,2.94,0.93,4.42c-0.96,1.48-2.94,1.89-4.42,0.93l-45.92-29.97
			l-70.74,46.17C74.45,220.12,73.85,220.28,73.25,220.28z"/>
	</g>
	<g>
		<path class="st0" d="M25.41,220.28c-1.04,0-2.06-0.51-2.68-1.45c-0.96-1.48-0.55-3.45,0.93-4.42l72.48-47.31
			c1.47-0.96,3.45-0.55,4.42,0.93c0.96,1.48,0.55,3.45-0.93,4.42l-72.48,47.31C26.62,220.12,26.01,220.28,25.41,220.28z"/>
	</g>
	<g>
		<path class="st0" d="M97.89,172.97c-1.76,0-3.19-1.43-3.19-3.19v-67.76c0-1.76,1.43-3.19,3.19-3.19c1.76,0,3.19,1.43,3.19,3.19
			v67.76C101.08,171.55,99.66,172.97,97.89,172.97z"/>
	</g>
	<g>
		<path class="st0" d="M97.47,271.79c-1.76,0-3.19-1.43-3.19-3.19v-67.31c0-1.76,1.43-3.19,3.19-3.19c1.76,0,3.19,1.43,3.19,3.19
			v67.31C100.66,270.36,99.23,271.79,97.47,271.79z"/>
	</g>
	<g>
		<path class="st0" d="M47.97,271.79c-1.76,0-3.19-1.43-3.19-3.19v-51.5c0-1.76,1.43-3.19,3.19-3.19c1.76,0,3.19,1.43,3.19,3.19
			v51.5C51.16,270.36,49.73,271.79,47.97,271.79z"/>
	</g>
	<g>
		<path class="st0" d="M145.72,172.97H97.89c-1.76,0-3.19-1.43-3.19-3.19s1.43-3.19,3.19-3.19h47.83c1.76,0,3.19,1.43,3.19,3.19
			S147.49,172.97,145.72,172.97z"/>
	</g>
	<g>
		<path class="st0" d="M70.52,220.28H25.41c-1.76,0-3.19-1.43-3.19-3.19c0-1.76,1.43-3.19,3.19-3.19h45.11
			c1.76,0,3.19,1.43,3.19,3.19C73.71,218.86,72.28,220.28,70.52,220.28z"/>
	</g>
	<g>
		<path class="st0" d="M183.31,271.79H47.97c-1.76,0-3.19-1.43-3.19-3.19c0-1.76,1.43-3.19,3.19-3.19h135.35
			c1.76,0,3.19,1.43,3.19,3.19C186.5,270.36,185.08,271.79,183.31,271.79z"/>
	</g>
	<g>
		<path class="st0" d="M255.24,94.58h-61.85c-1.76,0-3.19-1.43-3.19-3.19V47.35c0-11.58,9.43-21.01,21.01-21.01h26.21
			c11.58,0,21.01,9.43,21.01,21.01v24.21c0,1.76-1.43,3.19-3.19,3.19s-3.19-1.43-3.19-3.19V47.35c0-8.07-6.56-14.63-14.63-14.63
			H211.2c-8.07,0-14.63,6.56-14.63,14.63v40.84h58.66c1.76,0,3.19,1.43,3.19,3.19C258.43,93.15,257,94.58,255.24,94.58z"/>
	</g>
	<g>
		<path class="st0" d="M286.4,74.75h-93.01c-1.76,0-3.19-1.43-3.19-3.19s1.43-3.19,3.19-3.19h93.01c1.76,0,3.19,1.43,3.19,3.19
			S288.16,74.75,286.4,74.75z"/>
	</g>
	<g>
		<g>
			<g>
				<path class="st0" d="M140.65,121.47h-14.67c-1.76,0-3.19-1.43-3.19-3.19v-14.66c0-1.76,1.43-3.19,3.19-3.19h14.67
					c1.76,0,3.19,1.43,3.19,3.19v14.66C143.84,120.04,142.41,121.47,140.65,121.47z M129.17,115.09h8.28v-8.28h-8.28V115.09z"/>
			</g>
			<g>
				<path class="st0" d="M168.37,121.47H153.7c-1.76,0-3.19-1.43-3.19-3.19v-14.66c0-1.76,1.43-3.19,3.19-3.19h14.66
					c1.76,0,3.19,1.43,3.19,3.19v14.66C171.56,120.04,170.13,121.47,168.37,121.47z M156.9,115.09h8.28v-8.28h-8.28V115.09z"/>
			</g>
		</g>
		<g>
			<g>
				<path class="st0" d="M140.65,148.46h-14.67c-1.76,0-3.19-1.43-3.19-3.19V130.6c0-1.76,1.43-3.19,3.19-3.19h14.67
					c1.76,0,3.19,1.43,3.19,3.19v14.66C143.84,147.03,142.41,148.46,140.65,148.46z M129.17,142.07h8.28v-8.28h-8.28V142.07z"/>
			</g>
			<g>
				<path class="st0" d="M168.37,148.46H153.7c-1.76,0-3.19-1.43-3.19-3.19V130.6c0-1.76,1.43-3.19,3.19-3.19h14.66
					c1.76,0,3.19,1.43,3.19,3.19v14.66C171.56,147.03,170.13,148.46,168.37,148.46z M156.9,142.07h8.28v-8.28h-8.28V142.07z"/>
			</g>
		</g>
	</g>
	<g>
		<g>
			<g>
				<path class="st0" d="M140.65,220.58h-14.67c-1.76,0-3.19-1.43-3.19-3.19v-14.66c0-1.76,1.43-3.19,3.19-3.19h14.67
					c1.76,0,3.19,1.43,3.19,3.19v14.66C143.84,219.15,142.41,220.58,140.65,220.58z M129.17,214.19h8.28v-8.28h-8.28V214.19z"/>
			</g>
			<g>
				<path class="st0" d="M168.37,220.58H153.7c-1.76,0-3.19-1.43-3.19-3.19v-14.66c0-1.76,1.43-3.19,3.19-3.19h14.66
					c1.76,0,3.19,1.43,3.19,3.19v14.66C171.56,219.15,170.13,220.58,168.37,220.58z M156.9,214.19h8.28v-8.28h-8.28V214.19z"/>
			</g>
		</g>
		<g>
			<g>
				<path class="st0" d="M140.65,247.56h-14.67c-1.76,0-3.19-1.43-3.19-3.19V229.7c0-1.76,1.43-3.19,3.19-3.19h14.67
					c1.76,0,3.19,1.43,3.19,3.19v14.66C143.84,246.13,142.41,247.56,140.65,247.56z M129.17,241.17h8.28v-8.28h-8.28V241.17z"/>
			</g>
			<g>
				<path class="st0" d="M168.37,247.56H153.7c-1.76,0-3.19-1.43-3.19-3.19V229.7c0-1.76,1.43-3.19,3.19-3.19h14.66
					c1.76,0,3.19,1.43,3.19,3.19v14.66C171.56,246.13,170.13,247.56,168.37,247.56z M156.9,241.17h8.28v-8.28h-8.28V241.17z"/>
			</g>
		</g>
	</g>
</g>
</svg>
