<?xml version="1.0" encoding="utf-8"?>
<!-- Generator: Adobe Illustrator 27.2.0, SVG Export Plug-In . SVG Version: 6.00 Build 0)  -->
<svg version="1.1" id="Ñëîé_4" xmlns="http://www.w3.org/2000/svg" xmlns:xlink="http://www.w3.org/1999/xlink" x="0px" y="0px"
	 viewBox="0 0 311.81 311.81" style="enable-background:new 0 0 311.81 311.81;" xml:space="preserve">
<style type="text/css">
	.st0{fill:#847A70;}
</style>
<g>
	<g>
		<g>
			<g>
				<path class="st0" d="M154.18,276.28c-0.48,0-0.96-0.11-1.41-0.33c-1.15-0.57-1.85-1.78-1.77-3.06l2.67-42.66
					c0.11-1.76,1.63-3.1,3.39-2.99c1.76,0.11,3.1,1.63,2.99,3.39l-2.2,35.05l26.51-23.03c1.33-1.16,3.34-1.02,4.5,0.32
					c1.16,1.33,1.02,3.35-0.32,4.5l-32.26,28.03C155.68,276.02,154.93,276.28,154.18,276.28z"/>
			</g>
			<g>
				<path class="st0" d="M186.44,248.25c-0.49,0-0.99-0.11-1.45-0.35c-1.57-0.8-2.19-2.73-1.38-4.3L284.37,46.92
					c1.55-3.16,1.78-6.79,0.61-10.17c-1.17-3.38-3.58-6.1-6.8-7.65c-6.57-3.18-14.54-0.43-17.76,6.12l-100.8,196.63
					c-0.8,1.57-2.73,2.19-4.3,1.39c-1.57-0.8-2.19-2.73-1.39-4.3L254.71,32.36c4.74-9.64,16.52-13.7,26.24-9.01
					c4.76,2.3,8.33,6.32,10.06,11.32c1.72,5,1.39,10.37-0.94,15.11L189.29,246.51C188.72,247.62,187.6,248.25,186.44,248.25z"/>
			</g>
			<g>
				<path class="st0" d="M170.31,262.27c-0.47,0-0.96-0.11-1.41-0.33l-14.8-7.31c-1.58-0.78-2.23-2.7-1.45-4.28
					c0.78-1.58,2.7-2.23,4.28-1.45l14.8,7.31c1.58,0.78,2.23,2.7,1.45,4.28C172.62,261.61,171.49,262.27,170.31,262.27z"/>
			</g>
			<g>
				<path class="st0" d="M186.44,248.25c-0.48,0-0.96-0.11-1.41-0.33c-1.58-0.78-2.23-2.7-1.45-4.28c0.38-0.77-0.18-1.88-0.71-2.67
					c-3.44-5.16-14.39-10.57-20.61-10.19c-0.95,0.06-2.17,0.3-2.55,1.06c-0.78,1.58-2.69,2.23-4.28,1.45
					c-1.58-0.78-2.23-2.7-1.45-4.28c0.78-1.58,2.84-4.28,7.86-4.6c8.42-0.54,21.67,6.03,26.33,13.01c2.79,4.19,1.9,7.46,1.12,9.04
					C188.75,247.6,187.62,248.25,186.44,248.25z"/>
			</g>
		</g>
	</g>
	<g>
		<path class="st0" d="M288.9,292.1H22.91c-1.76,0-3.19-1.43-3.19-3.19v-266c0-1.29,0.78-2.46,1.97-2.95
			c1.19-0.5,2.57-0.22,3.48,0.69l158.82,158.82c1.25,1.25,1.25,3.27,0,4.51c-1.25,1.25-3.27,1.25-4.51,0L26.1,30.61v255.1h255.09
			l-77.15-77.15c-1.25-1.25-1.25-3.27,0-4.51c1.25-1.25,3.27-1.25,4.51,0l82.6,82.6c0.91,0.91,1.19,2.29,0.69,3.48
			C291.35,291.32,290.19,292.1,288.9,292.1z"/>
	</g>
	<g>
		<path class="st0" d="M155.85,249.54H65.47c-1.76,0-3.19-1.43-3.19-3.19V125.66c0-1.29,0.78-2.46,1.97-2.95
			c1.2-0.5,2.57-0.22,3.48,0.69l95.86,95.87c1.25,1.25,1.25,3.27,0,4.51c-1.25,1.25-3.27,1.25-4.51,0l-90.41-90.42v109.79h87.19
			c1.76,0,3.19,1.43,3.19,3.19C159.05,248.11,157.62,249.54,155.85,249.54z"/>
	</g>
	<g>
		<path class="st0" d="M197.59,102.94h-26.54c-1.76,0-3.19-1.43-3.19-3.19c0-1.76,1.43-3.19,3.19-3.19h26.54
			c1.76,0,3.19,1.43,3.19,3.19C200.78,101.52,199.35,102.94,197.59,102.94z"/>
	</g>
	<g>
		<path class="st0" d="M222.84,51.57h-73.92c-1.76,0-3.19-1.43-3.19-3.19c0-1.76,1.43-3.19,3.19-3.19h73.92
			c1.76,0,3.19,1.43,3.19,3.19C226.03,50.14,224.6,51.57,222.84,51.57z"/>
	</g>
	<g>
		<path class="st0" d="M215.31,77.04h-92.79c-1.76,0-3.19-1.43-3.19-3.19s1.43-3.19,3.19-3.19h92.79c1.76,0,3.19,1.43,3.19,3.19
			S217.08,77.04,215.31,77.04z"/>
	</g>
	<g>
		<g>
			<path class="st0" d="M32.91,271.33h-10c-1.76,0-3.19-1.43-3.19-3.19c0-1.76,1.43-3.19,3.19-3.19h10c1.76,0,3.19,1.43,3.19,3.19
				C36.1,269.9,34.67,271.33,32.91,271.33z"/>
		</g>
		<g>
			<path class="st0" d="M32.91,238.95h-10c-1.76,0-3.19-1.43-3.19-3.19c0-1.76,1.43-3.19,3.19-3.19h10c1.76,0,3.19,1.43,3.19,3.19
				C36.1,237.52,34.67,238.95,32.91,238.95z"/>
		</g>
		<g>
			<path class="st0" d="M32.91,206.57h-10c-1.76,0-3.19-1.43-3.19-3.19c0-1.76,1.43-3.19,3.19-3.19h10c1.76,0,3.19,1.43,3.19,3.19
				C36.1,205.14,34.67,206.57,32.91,206.57z"/>
		</g>
		<g>
			<path class="st0" d="M32.91,174.18h-10c-1.76,0-3.19-1.43-3.19-3.19c0-1.76,1.43-3.19,3.19-3.19h10c1.76,0,3.19,1.43,3.19,3.19
				C36.1,172.76,34.67,174.18,32.91,174.18z"/>
		</g>
		<g>
			<path class="st0" d="M32.91,141.8h-10c-1.76,0-3.19-1.43-3.19-3.19c0-1.76,1.43-3.19,3.19-3.19h10c1.76,0,3.19,1.43,3.19,3.19
				C36.1,140.37,34.67,141.8,32.91,141.8z"/>
		</g>
		<g>
			<path class="st0" d="M32.91,109.42h-10c-1.76,0-3.19-1.43-3.19-3.19s1.43-3.19,3.19-3.19h10c1.76,0,3.19,1.43,3.19,3.19
				S34.67,109.42,32.91,109.42z"/>
		</g>
		<g>
			<path class="st0" d="M32.91,77.04h-10c-1.76,0-3.19-1.43-3.19-3.19s1.43-3.19,3.19-3.19h10c1.76,0,3.19,1.43,3.19,3.19
				S34.67,77.04,32.91,77.04z"/>
		</g>
	</g>
	<g>
		<g>
			<path class="st0" d="M50.47,71.95c-0.82,0-1.63-0.31-2.26-0.94c-1.25-1.25-1.25-3.27,0-4.51l8.07-8.07
				c1.25-1.25,3.27-1.25,4.51,0c1.25,1.25,1.25,3.27,0,4.51l-8.07,8.07C52.1,71.64,51.28,71.95,50.47,71.95z"/>
		</g>
		<g>
			<path class="st0" d="M71.99,93.48c-0.82,0-1.63-0.31-2.26-0.94c-1.25-1.25-1.25-3.27,0-4.51l8.07-8.07
				c1.25-1.25,3.27-1.25,4.51,0c1.25,1.25,1.25,3.27,0,4.51l-8.07,8.07C73.63,93.17,72.81,93.48,71.99,93.48z"/>
		</g>
		<g>
			<path class="st0" d="M93.52,115.01c-0.82,0-1.63-0.31-2.26-0.94c-1.25-1.25-1.25-3.27,0-4.51l8.07-8.07
				c1.25-1.25,3.27-1.25,4.51,0c1.25,1.25,1.25,3.27,0,4.51l-8.07,8.07C95.15,114.7,94.34,115.01,93.52,115.01z"/>
		</g>
		<g>
			<path class="st0" d="M115.05,136.54c-0.82,0-1.63-0.31-2.26-0.94c-1.25-1.25-1.25-3.27,0-4.51l8.07-8.07
				c1.25-1.25,3.27-1.25,4.51,0c1.25,1.25,1.25,3.27,0,4.51l-8.07,8.07C116.68,136.22,115.87,136.54,115.05,136.54z"/>
		</g>
		<g>
			<path class="st0" d="M136.58,158.06c-0.82,0-1.63-0.31-2.26-0.94c-1.25-1.25-1.25-3.27,0-4.51l8.07-8.07
				c1.25-1.25,3.27-1.25,4.51,0c1.25,1.25,1.25,3.27,0,4.51l-8.07,8.07C138.21,157.75,137.39,158.06,136.58,158.06z"/>
		</g>
		<g>
			<path class="st0" d="M158.11,179.59c-0.82,0-1.63-0.31-2.26-0.94c-1.25-1.25-1.25-3.27,0-4.51l8.07-8.07
				c1.25-1.25,3.27-1.25,4.51,0c1.25,1.25,1.25,3.27,0,4.51l-8.07,8.07C159.74,179.28,158.92,179.59,158.11,179.59z"/>
		</g>
		<g>
			<path class="st0" d="M222.69,244.18c-0.82,0-1.63-0.31-2.26-0.94c-1.25-1.25-1.25-3.27,0-4.51l8.07-8.07
				c1.25-1.25,3.27-1.25,4.51,0c1.25,1.25,1.25,3.27,0,4.51l-8.07,8.07C224.32,243.87,223.51,244.18,222.69,244.18z"/>
		</g>
		<g>
			<path class="st0" d="M244.22,265.7c-0.82,0-1.63-0.31-2.26-0.94c-1.25-1.25-1.25-3.27,0-4.51l8.07-8.07
				c1.25-1.25,3.27-1.25,4.51,0s1.25,3.27,0,4.51l-8.07,8.07C245.85,265.39,245.03,265.7,244.22,265.7z"/>
		</g>
	</g>
</g>
</svg>
